<?xml version="1.0" encoding="utf-8"?>
<!-- Generator: Adobe Illustrator 21.0.2, SVG Export Plug-In . SVG Version: 6.00 Build 0)  -->
<svg version="1.1" id="Layer_1" xmlns="http://www.w3.org/2000/svg" xmlns:xlink="http://www.w3.org/1999/xlink" x="0px" y="0px"
	 viewBox="0 0 1000 267.7" style="enable-background:new 0 0 1000 267.7;" xml:space="preserve">
<style type="text/css">
	.st0{fill:#D0CEDB;}
	.st1{fill:url(#SVGID_1_);}
	.st2{fill:url(#SVGID_2_);}
	.st3{fill:#584F6D;}
	.st4{opacity:0.35;fill:#FFFFFF;}
	.st5{fill:#FFFFFF;}
</style>
<g>
	<ellipse class="st0" cx="98.3" cy="254.4" rx="52.8" ry="6.3"/>
	<linearGradient id="SVGID_1_" gradientUnits="userSpaceOnUse" x1="-45.873" y1="114.4086" x2="273.0424" y2="114.4086">
		<stop  offset="0" style="stop-color:#6D4BEA"/>
		<stop  offset="0.3831" style="stop-color:#6C48E8"/>
		<stop  offset="0.6204" style="stop-color:#6740E0"/>
		<stop  offset="0.8175" style="stop-color:#5F31D2"/>
		<stop  offset="0.9925" style="stop-color:#551DBF"/>
		<stop  offset="1" style="stop-color:#541CBE"/>
	</linearGradient>
	<path class="st1" d="M98.3,210.7C45.1,210.7,2,167.6,2,114.4s43.1-96.3,96.3-96.3c53.2,0,96.3,43.1,96.3,96.3
		S151.5,210.7,98.3,210.7z"/>
	<linearGradient id="SVGID_2_" gradientUnits="userSpaceOnUse" x1="-44.3213" y1="17.0278" x2="274.5941" y2="17.0278">
		<stop  offset="0" style="stop-color:#6D4BEA"/>
		<stop  offset="0.2139" style="stop-color:#663EDE"/>
		<stop  offset="0.7025" style="stop-color:#5925C7"/>
		<stop  offset="1" style="stop-color:#541CBE"/>
	</linearGradient>
	<circle class="st2" cx="206.9" cy="17" r="16.5"/>
	<path class="st3" d="M364.7,145.3c-7.4,7.4-16.5,11.1-27.3,11.1c-10.7,0-19.8-3.8-27.2-11.3c-7.4-7.5-11.1-16.6-11-27.2
		s3.8-19.7,11.2-27.2c7.4-7.4,16.5-11.1,27.3-11.1c10.7,0,19.8,3.8,27.2,11.3c7.4,7.5,11.1,16.6,11,27.2
		C375.8,128.8,372.1,137.9,364.7,145.3z M315.4,140.1c5.9,6.1,13.3,9.1,22,9.1c8.8,0,16.1-3,22.1-9c6-6,9-13.4,9-22.1
		c0-8.7-2.9-16.1-8.8-22.1c-5.9-6.1-13.3-9.1-22-9.1c-8.8,0-16.1,3-22.1,9c-6,6-9,13.4-9,22.1S309.5,134,315.4,140.1z"/>
	<path class="st3" d="M478.8,155.6l-17.2-29.7l-20.8-0.1l-0.1,29.7l-7.4,0l0.3-74.2l29.7,0.1c6.1,0,11.4,2.2,15.7,6.6
		c4.3,4.4,6.5,9.6,6.5,15.8c0,5-1.5,9.5-4.6,13.4c-3,3.9-6.9,6.5-11.5,7.9l18,30.7L478.8,155.6z M440.8,88.3l-0.1,30.5l22.3,0.1
		c4.1,0,7.6-1.5,10.5-4.5c2.9-3,4.4-6.6,4.4-10.7c0-4.2-1.4-7.9-4.3-10.8c-2.9-3-6.4-4.5-10.5-4.5L440.8,88.3z"/>
	<path class="st3" d="M583.8,117.5c3.6,1.6,6.5,3.9,8.6,7.1c2.1,3.2,3.2,6.7,3.2,10.8c0,5.7-2.1,10.6-6.1,14.6c-4,4-8.9,6-14.7,6
		l-32.3-0.1l0.3-74.2l29.9,0.1c5.5,0,10.2,2,14.1,5.9c3.9,3.9,5.8,8.6,5.8,14.1C592.5,108.7,589.6,113.9,583.8,117.5z M574.9,149
		c3.7,0,6.8-1.3,9.4-3.9c2.6-2.6,3.9-5.9,3.9-9.7c0-3.7-1.3-7-3.8-9.7c-2.6-2.7-5.7-4-9.4-4.1l-24.9-0.1l-0.1,27.4L574.9,149z
		 M572.7,88.8l-22.5-0.1l-0.1,25.9l22.5,0.1c3.5,0,6.4-1.2,8.9-3.7c2.4-2.5,3.7-5.6,3.7-9.2c0-3.5-1.2-6.6-3.6-9.1
		C579.1,90.1,576.1,88.8,572.7,88.8z"/>
	<path class="st3" d="M653.2,82l7.4,0l-0.3,74.2l-7.4,0L653.2,82z"/>
	<path class="st3" d="M768.9,82.5l0,7l-22.8-0.1l-0.2,67.2l-7.4,0l0.2-67.2l-22.8-0.1l0-7L768.9,82.5z"/>
	<path class="st3" d="M871.9,82.8l7.4,0l-0.3,74.2l-7.4,0l0.1-34.7l-40.3-0.1l-0.1,34.7l-7.4,0l0.3-74.2l7.4,0l-0.1,32.5l40.3,0.1
		L871.9,82.8z"/>
	<path class="st3" d="M990.2,157.4l-6.8-18.3l-35.2-0.1l-7,18.2l-7.8,0l28.8-74.1l7.6,0l28.3,74.3L990.2,157.4z M950.8,132.1
		l29.9,0.1l-14.8-39.7L950.8,132.1z"/>
</g>
</svg>
